<?xml version="1.0" encoding="utf-8"?>
<!-- Generator: Adobe Illustrator 19.0.1, SVG Export Plug-In . SVG Version: 6.00 Build 0)  -->
<svg version="1.1" id="svg2" xmlns:svg="http://www.w3.org/2000/svg"
     xmlns="http://www.w3.org/2000/svg" xmlns:xlink="http://www.w3.org/1999/xlink"
     x="0px" y="0px" viewBox="50 -50 500 500"
     style="enable-background:new 50 -50 500 500;" xml:space="preserve">
<path d="M459,73.3l3.6-2.2l-10-6.9l-10-6.9l-2.2,7.5c-3,10.1-8.5,22-14,30.1c-4.4,6.4-13.8,14.9-16.5,14.9c-1.7,0-1.8-0.4,1.9,8.8
    c1.7,4.4,3.6,9.2,4.1,10.8l0.9,2.8l3.1-3c1.7-1.6,2.3-3.2,8.3-4.8c6.6-2.2,17.5-4.5,19.1-3.9c0.7,0.3-2.2,5.7-6.6,12.4
    c-8,12.2-16.8,21.7-23.9,25.9l-4,2.4l2.8,5.8c1.6,3.2,3.5,6.9,4.4,8.2c1.6,2.4,1.6,2.4,5.1,0.1c4.4-2.9,10.5-4.5,26.3-6.6
    c7-1,14.3-2,16.3-2.3c3.2-0.5,3.8-0.2,4.3,2c0.6,3.4,0.4,7,1.7,10.3c1.4,3.1,2.3,2.9,6.4-1.6c6.8-7.4,6-14.7-3.3-27.9
    c-9-12.8-10.6-14.3-14.1-13l-2.9,1.1l4.9,9.9c2.7,5.4,4.9,10.3,4.9,10.8c-11.9,3.2-30,2.1-40.5-0.7c11.2-11.8,22.7-23.4,32.7-36.7
    c4.9-6.5,10.3-12.4,11.9-13.2c1.6-0.8,3-1.8,3-2.2c0-1.2-13.9-15.3-15.1-15.3c-0.6,0-1.1,0.5-1.1,1c0,0.6-1.7,5.3-3.7,10.5l-3.7,9.5
    h-15.5c-8.5,0-15.5-0.4-15.5-0.9C421.8,108.5,455.1,75.6,459,73.3z"/>
<path d="M236.1,272.9c1.4-0.6,6.7-1.1,7-1.1c0,0.4,0.1,55.8,0.1,55.8l3.2,4.7l3.2,4.7l3.7-2.1c4.2-3.5,10.4-8.2,13.7-10.6
    c4.6-3.3,6.4-4.4,7.5-6.4c0.1-1.7-0.3-2,3.3,1.9c3.2,3.4,8.1,8.2,11.1,10.6c5,4.2,5.4,4.3,7.1,2.4c2.3-2.6,7.7-5.1,10.9-5.1
    c1.8,0,2.6-0.6,2.6-2.2c0-1.7-2-1-8.2-3.9c-13.2-6.1-23.2-14.7-23.2-20c0-1.7,8.5-6.5,16-9c2.4-0.8,4.3-1.6,4.3-1.8s-2.2-4.4-5-9.2
    l-5-8.9l-4.2,7.7c-2.3,4.2-5.6,9-7.3,10.6c-3.6,3.5-3.1,4-9.9-10.1l-4.3-9h21.9c25,0,23.4,1.1,14.5-10.4l-4.8-6.2l-4.2,4.9l-4.2,4.9
    l-15.9-0.3l-15.9-0.3v-16.2l21-0.3l21-0.3l-4.1-7.8c-6.2-11.7-5.6-11.4-10.2-4.9l-4,5.8h-23.7l0.2-17c0,0,9.8-0.4,21.3-0.4h20.9
    l-2.9-4.3c-1.6-2.4-3.7-5.8-4.7-7.5c-1-1.8-2.2-3.2-2.8-3.2c-3.2,2-5.6,5.3-8.2,8.2l-23.6,0.1l-0.1-16.9l23-0.3l23-0.3l-5.8-8.7
    c-3.2-4.8-6.1-8.7-6.4-8.7c-0.4,0-2.3,2.5-4.4,5.5l-3.7,5.5l-27.8-0.1l-2.3-4.9l-6.3-4.9v82.3h-10.8h-6.8l3.9,4.5
    C233.1,273.4,234,273.8,236.1,272.9z M254.4,271.8c0,0,10.9,25.2,14.3,31.1c1.7,3,3.3,6.9,3.4,7.6c0.2,0.9-17.2,10.5-17.6,9.7
    C254.4,315.9,254.4,271.8,254.4,271.8z"/>
<path d="M182.7,65.2c5.8,0,13.6-4,17.6-8.4c5.5-6,6.2-12.9,6.2-29.4l-0.1-14.1l294.4,0.7c-5.4,11-14.1,21.7-21.3,31.3
    c-0.6,0-2.3-0.7-3.8-1.5c-6.8-3.8-61.5-22.2-62.5-21c-0.3,0.3-0.6,1.8-0.7,3.4c-0.2,2.7,0.5,3.2,8.1,6.6c28.8,13,66,38,74.7,53.3
    c1.5,2.7,3.8,6.1,4.9,7.5c3,3.5,6.4,2.8,10.1-2.2c3.7-5,4.8-13.6,2.5-19.6c-2.6-6.6-9.5-13.9-16.9-18l-7-3.8l8.3-8.7
    c15.7-16.6,30.4-25.8,47.1-29.5l5.3-1.2l-33.2-34.1L497.1,0.1L365.1-0.7c0-0.5,1-1.5,2.1-2.3c1.2-0.8,3-3.6,4.1-6.3
    c2.8-7,1.8-11.7-4-17.9c-5.2-5.5-21.7-14.7-36.1-20.1c-8.9-3.4-9.1-3.4-11-1.3c-1.9,2-1.7,2.3,7.8,15.2
    c9.4,12.8,16.8,26.5,16.8,31.2v2.3L205.9-1c-0.1-0.6-0.2-1.5-0.3-1.9c-0.7-6.7-1.2-13.5-1.8-20.3l-6.1,0.7l-2.9,12.1
    c-4.7,19.8-12.4,37-21.3,47.4c-8.2,9.6-11.1,19.3-7.2,23.6C168.5,63,176.6,65.2,182.7,65.2z"/>
<path d="M547.9,419.2c0,0-6.3,1.2-11.6,1.8c-53.5,6.1-95.5,6.2-164.6,6.2c-92.6,0-150.7-12.5-186.4-22.5
    c-21.1-5.9-43-21.4-49.9-37.3l-2.7-6.3l0.4-207.7l10.2-6.4c4.5-3.5,8-6.8,7.9-7.3c-0.6-1.8-26.5-28.6-27.4-28.2
    c-0.5,0.2-4,5.1-7.8,10.8l-6.8,10.4L81,133.2l-28.1,0.6l9,9.8l9,9.8l8.5-2.2c12.4-3.3,19.8-4.6,25.9-4.6h5.4v208.3L50,406.4l28,27.8
    c0.6-0.8,6.6-11.4,13.5-23.5c6.8-12.1,14-24.7,16.1-28c4.2-6.8,10.9-13.7,12.6-13.1c0.7,0.2,3.1,8.3,9.1,17.9
    c12.3,19.8,16.4,21.2,23.8,27.3c23,18.6,65.1,28.8,128.9,31.3c74.5,2.7,148.9,4.1,223.4,3.9l1.9-5.8c3.7-11.3,17.1-9.1,33.4-13.9
    l6.8-2v-4.2C547.4,421.7,547.9,419.2,547.9,419.2z"/>
<path d="M115.4,57.2c3.6,13.1,7,17.6,10.4,19.7c4.4,2.8,6.8,1.1,12.8-6.8c6.3-8.3,9.1-14.4,9.1-24.1c0-20.3-12.4-36.1-44.9-57.1
    c-7.9-5.1-21.1-14.7-21.9-14.7c-1.6,1.9-3,4.1-4.4,6.2l5.6,7.7C98.9,10.8,107.5,28.7,115.4,57.2z"/>
<path d="M223.8,312.7l0.5-190.9l3.1-2.8l3.1-2.8l-7.1-7.7l-7.1-7.7l-3.4,3.5c-3.2,3.4-3.7,3.5-11.2,3.5c-6.4,0-9.3-0.6-15.5-3.3
    c-4.2-1.8-8-3.3-8.5-3.3c-0.5,0,1.4,11,1.8,27.3c1,35,1,91.3,0,111.2c-1.3,26.4-4.3,49.3-9.6,72.5c-3.1,13.5-5.5,16.5-4.4,17.9
    c0.7,0.9,1.6,1.7,2,1.7c1.1,0,8.8-15.2,12.1-24c5.9-15.7,10.9-37.4,12.8-56.3l0.7-6.9h17l-0.3,55.2c-1.4,3-3.5,3.2-14.6,1.7
    c-6.3-0.8-6.3-0.8-6.3,1.9c0,1.9,2.1,5,6.9,10.3c4.6,5,7.5,9.3,8.8,12.8c1.6,4.5,2.2,5.2,4,4.6c5.2-1.7,9.6-6,12.4-12.3L223.8,312.7
    z M211.1,236.1h-18.2v-55.2h18.2V236.1z M211.1,172.1h-18.2v-53h18.2V172.1z"/>
<path d="M279.1,17.5l-15.5,14.8c-10.9,11.9-21.2,16.7-32.4,24.7c-13.6,9.8-34.1,21.5-48,27.4c-8.7,3.7-8.9,3.9-7.7,7.5l1,2.9l12-3.9
    c26.5-8.6,48.3-17.9,75-34.4c22.6-13.9,28.7-14.5,37.7-15.9l8.1-1.3l-15.1-10.9L279.1,17.5z"/>
<g>
    <path d="M309,91c0.1,0,1.6-0.8,3.5-1.8c8-3.4-2.4-2.4,55.5-2.4l52.1-0.5l-11.7-10.4c-5.9-5.7-10.1-8.3-10.7-8.3s-5.6,2.4-11.1,5.3
        c-9.6,5.1-10.5,5.3-18,5.3l-8,0l4-2.4c2.2-1.3,4.8-3.6,5.8-5.1c5.6-8,3-12.7-19.1-21.7c-8.9-3.6-10.8-4.7-14.1-2.4l-2.5,1.7
        l8.9,7.2c4.9,5.1,5.9,8,8.3,11.5c2.4,3.5,2.6,7.5,4.1,8.8l2.7,2.4l-65.4,0L309,91z"/>
    <path d="M320,143.6c1.2,9.8,1.4,13.1,1.4,26.2c0,7.8,0.4,14.1,0.9,14.1l13-4.9l42.5-1l0.3,3c0.2,2.2,0.8,2.9,2,2.6
        c17.1-4.9,14.5-5.5,14-8.3c-0.3-1.5-0.8-4.9-1.1-7.7l-0.6-5l5.3-3.4c1.9-1.3,0-5.7-1.1-6.8c-5.1-4.9-9.1-13.4-10-13.4
        c-0.6,0-3.4,1.2-6.2,2.7c-4.9,2.6-3.5,2.7-26.1,2.7c-21.5,0-23.7-0.9-33-3.8C319.8,140.1,319.6,140.6,320,143.6z M380.4,154.3
        l-0.1,14.5h-46.7l0-14.4L380.4,154.3z"/>
    <path d="M343.1,123.1l-28.6,0.5l9.6,12l4.1-1.6c9-3.2-3.8-2.7,40.8-2.2l36.8-0.6l-9.1-8.5l-9.1-8.5l-15.7,8.5L343.1,123.1z"/>
    <path d="M396.9,101.4c-4.9-4.5-9.6-7.2-10.3-7.2c-0.7,0-4.1,1.3-7.6,2.9c-6.3,2.9-6.4,2.9-36.5,3.5l-30.1,0.6l9.5,12l8.6-3.3
        c20.2-0.8,75.4-1.2,75.4-1.2L396.9,101.4z"/>
</g>
<path d="M242,154.6l-7.1,5.3l3.8,7.4c2.1,4.1,4.2,7.4,4.6,7.3s2.6-1,4.9-2.1c4.7-2.4,15.1-4.6,32.4-7c6.7-0.9,12.5-1.7,12.9-1.7
    c0.4,0,0.8,2,0.8,4.5c0,2.5,0.4,5.8,1,7.4c1.4,4,2.7,3.7,7.3-1.7c3.1-3.7,3.9-5.5,3.9-8.9c0-5.6-4.2-13.6-12.4-23.6
    c-6.1-7.5-6.6-7.8-9.7-7.1l-3.3,0.8l2.1,3.6c2.3,4,8.1,16.4,8.1,17.3c0,0.3-9.5,0.6-21,0.6l-21,0l5.6-5.4c9.3-9,25.2-26.8,31-34.8
    c3.5-4.8,7-8.3,9.7-9.7l4.2-2.2l-7.5-7.8c-4.1-4.3-8-7.8-8.5-7.8c-0.6,0-2,3-3.3,6.6c-1.3,3.6-3.2,8.3-4.3,10.3l-2,3.7h-15.2
    c-8.4,0-15.2-0.4-15.2-0.9c0-1.6,32.5-32.9,36.5-35.1c2.2-1.2,4-2.5,4-2.9c0-0.5-16.5-12.1-19.3-13.5c-0.3-0.2-1.1,2.1-1.8,5
    c-4.4,18.6-17.6,39.2-28.6,44.7c-2.2,1.1-3.9,2.3-3.7,2.7c0.1,0.4,2,5.2,4.2,10.6l3.9,9.9l3.2-2.7c1.7-1.5,2-3.1,7.9-4.5
    c5.6-2.1,17.5-4.6,19.2-4c1.4,0.5-8.6,16.6-15.1,24.3C251.2,146.8,245.9,151.7,242,154.6z"/>
<g>
    <path d="M262.3,408.4c3.3,0.3,48.5,0.6,100.3,0.5c104.2-0.1,103.4-0.1,118-6c5.8-2.4,10.2-7.3,10.2-9c0-0.3-1.9-3.4-4.3-4.3
        c-6.8-2.7-10.9-6.3-13-10.5c-1-2.1-2.5-6.7-3.1-10.3l-1.2-6.6h-7.7l-0.1,8.8c-0.1,11.2-0.8,16.5-2.5,18.9c-0.8,1.1-3.7,3.8-7,3.9
        c-75.6,2.1-48.1,2.7-181.3,1.9l-4-2c-7-3.6-8.2-5.8-8.5-16.8l0.7-9.7l3.4-9.3c-0.4-0.1-1.3-2.6-9.4-5.6l-14.7-5.3l-0.3,17.8
        c-0.4,24.5,1,30.9,8,37.2C249.7,405.7,254.6,407.6,262.3,408.4z"/>
    <path d="M204.3,359c-8.4,11.2-12.2,14.9-23.2,22.9c-9.8,7-12.5,9.7-12.5,12.2c0,2,2.8,4.1,7.1,5.3c5.9,1.6,15.5,0.6,20.6-2
        c11.6-6.1,18-18.1,19.5-36.5l0.7-8.2l-3-0.9C210.5,350.8,210.4,350.8,204.3,359z"/>
    <path d="M517.4,382.3c7.1,6.7,14,12.6,15.2,13.2c2.9,1.5,3.9,1.4,6.5-0.2c4.8-3,7.2-17.3,3.9-23c-2.9-5-19.3-12.1-49.5-21.5
        l-6.9-2.1l-1.9,2.8l-1.9,2.8l10.8,7.9C499.6,366.6,510.3,375.7,517.4,382.3z"/>
    <path d="M319.8,342.1c23.2,8.5,43.2,21.2,61,38.8c4.4,4.4,9.4,8.7,11.1,9.7c5.2,2.9,9.7,1.1,12.9-5.1c3.2-6.3,2-12.5-3.9-19.3
        c-7.6-8.9-35.5-19.5-81-30.9c-5.8-1.4-6.2-1.4-7.2,1.4C311.8,339.1,311.9,339.2,319.8,342.1z"/>
</g>
<g>
    <path d="M517.4,303c-2.2,3.6-5,3.8-15.3,1.4c-8.7-2.1-8.3-2.2-8.3,1.4c0,2.5,0.9,3.7,4.9,6.1c7.4,4.5,13.4,10.6,15.4,15.6l1.8,4.4
        l3-1.9c4.9-3.1,11.7-13.1,13-18c0.9-3.4-0.8-28.9-0.8-99.6c0-90.1,5.7-99.8,5.2-99c1.2-2.1,2-4,1.8-4.2c-1.1-1.1-19.8-13.1-20-12.8
        c0,38.5,2.3,77,1.1,115.5C519.3,294.2,519.1,300.2,517.4,303z"/>
    <path d="M510.3,137.4c-0.8-0.8-19.6-13-20.1-13c-0.3,0-0.2,1.4,0.2,3.1c0.9,4.1,0.7,134.6,0.7,134.6l-1.2,13.6l4.4-2.9
        c2.4-1.6,6.1-4,8.3-5.4c3.4-2.1,1.8-2.9,1.2-5.3c-2.5-38.1-0.3-76.5-1.5-114.6l5.2-4.9C509.1,139.9,510.4,137.6,510.3,137.4z"/>
</g>
<g>
    <path d="M379.9,296.1c0.9,3.2,2.1,6.7,2.6,7.8c0.5,1.1,1.6,2,2.4,2c1.9,0,4.5-9.1,5.3-14.3c0.5-3.7,0.2-4.6-3.5-8.6
        c-7.6-8.2-16.5-11.6-16.5-7.2c0,0.5,1.8,2.4,4,6.7C376.4,286.7,379,292.9,379.9,296.1z"/>
    <path d="M360.6,281c-4.9-4.1-6.3-4.8-7.9-3.8c-1.1,0.7-1.7,1.8-1.4,2.5c5.5,14.5,7.7,20.7,7.7,21.5c0,0.5,0.7,2.8,1.5,5.1
        c0.8,2.3,2.2,4.2,3,4.2c2.1,0,5.7-8.8,6.4-14.1C370.5,291.2,369.9,288.8,360.6,281z"/>
    <path d="M326.8,281.3l-2.9,0.8c-1.6,0.5-2,0.9-2,1c-0.1,0.1-1.3,3.3-2.8,7.1c-1.5,3.8-5,10.9-7.8,15.8c-2.8,4.9-4.9,9.8-4.8,10.9
        c0.2,1.1,1.5,2.7,2.9,3.5c3.5,2,4,1.8,7.8-0.8c5.5-3.8,8.1-11.8,9.1-28.2L326.8,281.3z"/>
    <path d="M346.1,309.6c5.4-12.3,5.7-15.9-4.1-24.5c-6.4-5.8-7.8-6.6-9.5-5.6c-1.1,0.7-1.8,1.9-1.6,2.6c0.9,2.4,7.4,21.9,9.2,27.6
        C342.5,316.8,344,315,346.1,309.6z"/>
    <path d="M405.4,272c0.1-1.8,0.1-4.5,1.3-5.8l2-0.4l-4.3-6l-4.3-7.1l-6.2,6.7h-28.8v-12.4h36.6l-5.8-4.9c-3.2-4.4-6.2-8.1-6.7-8.1
        c-0.5,0-2.6,1-4.8,2.3c-6.4,3.2-12.5,2.2-19.3,2.3v-13.5h36.7l-6.9-8.7l-5.4-5.4l-4.5,3.4c-3.3,1.7-6.6,2.3-12.6,2.3h-7.2v-13.5
        H388H412l-10.3-7.2l-10.3-8.3l-5.1,3.6l-4.1,3.6h-24.9h-33.9l-4.7-3.5c-3.7-1.9-4.9-3.3-5-3.1c-0.2,0.2,0.1,3.4,0.6,8.5
        c1.9,21.2,0.4,61.1,0,68.1c-0.5,6.9-0.8,12.7-0.6,12.8c0.1,0.1,2.2-0.3,7-0.9l6.8-1.1l0.3-3.6l0.3-3.6H361H394l0,11.5
        c0,15.3-2.2,23.3-7.9,29.9c-5.6,6.4-10.3,7.7-28.1,7.7c-7.7,0-15.1,0.4-15.1,1c0,1.6,3.2,2,7.6,3.4c7.8,2.5,14,8,16,14.5
        c0.4,1.3,8.8,0.2,15-3.3c8.9-5.1,11.7-9.3,15.2-17.4c2.9-6.9,6.1-21.7,7.2-30.1C404.1,281.4,405.3,273.3,405.4,272z M327.8,207.2
        l0.3-3.3h25.3v12.4l-14.4,0.3C327.6,217,327.6,217,327.8,207.2z M353.9,259.5h-26.3v-12.4h26.3V259.5z M353.4,238.2l-25.1-0.2
        c-1-3.1-0.7-9.5-0.7-12.8H354L353.4,238.2z"/>
</g>
<path d="M416.6,272.9c1.4-0.6,4.7-1.1,5-1.1c0,0.4,0.1,55.8,0.1,55.8l3.2,4.7l3.2,4.7l3.7-2.1c4.2-3.5,10.4-8.2,13.7-10.6
    c4.6-3.3,6.4-4.4,7.5-6.4c0.1-1.7-0.3-2,3.3,1.9c3.2,3.4,8.1,8.2,11.1,10.6c5,4.2,5.4,4.3,7.1,2.4c2.3-2.6,7.7-5.1,10.9-5.1
    c1.8,0,2.6-0.6,2.6-2.2c0-1.7-2-1-8.2-3.9c-13.2-6.1-23.2-14.7-23.2-20c0-1.7,8.5-6.5,16-9c2.4-0.8,4.3-1.6,4.3-1.8s-2.2-4.4-5-9.2
    l-5-8.9l-4.2,7.7c-2.3,4.2-5.6,9-7.3,10.6c-3.6,3.5-3.1,4-9.9-10.1l-4.3-9H463c25,0,23.4,1.1,14.5-10.4l-4.8-6.2l-4.2,4.9l-4.2,4.9
    l-15.9-0.3l-15.9-0.3v-16.2l21-0.3l21-0.3l-4.1-7.8c-6.2-11.7-5.6-11.4-10.2-4.9l-4,5.8h-23.7l0.2-17c0,0,9.8-0.4,21.3-0.4h20.9
    l-2.9-4.3c-1.6-2.4-3.7-5.8-4.7-7.5c-1-1.8-2.2-3.2-2.8-3.2c-3.2,2-5.6,5.3-8.2,8.2l-23.6,0.1l-0.1-16.9l23-0.3l23-0.3l-5.8-8.7
    c-3.2-4.8-6.1-8.7-6.4-8.7c-0.4,0-2.3,2.5-4.4,5.5l-3.7,5.5l-27.8-0.1l-2.3-4.9l-6.3-4.9v82.3h-7.8h-6.8l3.9,4.5
    C414.6,273.4,414.5,273.8,416.6,272.9z M432.9,271.8c0,0,10.9,25.2,14.3,31.1c1.7,3,3.3,6.9,3.4,7.6c0.2,0.9-17.2,10.5-17.6,9.7
    C432.9,315.9,432.9,271.8,432.9,271.8z"/>
</svg>
